  0
SECTION
  2
HEADER
  9
$ACADVER
  1
AC1009
  9
$EXTMIN
 10
0.0
 20
0.0
 30
0.0
  9
$EXTMAX
 10
1000.0
 20
1000.0
 30
0.0
  9
$FILLMODE
 70
 0
  9
$SPLFRAME
 70
 1
  0
ENDSEC
  0
SECTION
  2
TABLES
  0
TABLE
  2
LAYER
 70
1
  0
LAYER
  2
0
 70
     0
 62
     7
  6
CONTINUOUS
  0
ENDTAB
  0
ENDSEC
  0
SECTION
  2
ENTITIES
  0
LINE
  8
0
 62
     0
 10
0.0950846
 20
123.905
 30
0.0
 11
347.758
 21
123.905
 31
0.0
  0
LINE
  8
0
 62
     0
 10
347.758
 20
123.905
 30
0.0
 11
347.758
 21
0.0799264
 31
0.0
  0
LINE
  8
0
 62
     0
 10
347.758
 20
0.0799264
 30
0.0
 11
0.0950846
 21
0.0799264
 31
0.0
  0
LINE
  8
0
 62
     0
 10
0.0950846
 20
0.0799264
 30
0.0
 11
0.0950846
 21
123.905
 31
0.0
  0
LINE
  8
0
 62
     0
 10
124.062
 20
16.6054
 30
0.0
 11
124.062
 21
11.9049
 31
0.0
  0
LINE
  8
0
 62
     0
 10
124.062
 20
11.9049
 30
0.0
 11
84.4381
 21
11.9049
 31
0.0
  0
LINE
  8
0
 62
     0
 10
84.4381
 20
11.9049
 30
0.0
 11
84.4381
 21
15.135
 31
0.0
  0
LINE
  8
0
 62
     0
 10
84.4381
 20
15.135
 30
0.0
 11
77.6884
 21
15.135
 31
0.0
  0
LINE
  8
0
 62
     0
 10
77.6884
 20
15.135
 30
0.0
 11
77.6884
 21
11.9049
 31
0.0
  0
LINE
  8
0
 62
     0
 10
77.6884
 20
11.9049
 30
0.0
 11
76.8629
 21
11.9049
 31
0.0
  0
LINE
  8
0
 62
     0
 10
76.8629
 20
11.9049
 30
0.0
 11
76.8629
 21
9.1047
 31
0.0
  0
LINE
  8
0
 62
     0
 10
76.8629
 20
9.1047
 30
0.0
 11
77.6884
 21
9.1047
 31
0.0
  0
LINE
  8
0
 62
     0
 10
77.6884
 20
9.1047
 30
0.0
 11
77.6884
 21
2.83463
 31
0.0
  0
LINE
  8
0
 62
     0
 10
77.6884
 20
2.83463
 30
0.0
 11
79.412
 21
2.83463
 31
0.0
  0
LINE
  8
0
 62
     0
 10
79.412
 20
2.83463
 30
0.0
 11
79.412
 21
1.63573
 31
0.0
  0
LINE
  8
0
 62
     0
 10
79.412
 20
1.63573
 30
0.0
 11
82.7126
 21
1.63573
 31
0.0
  0
LINE
  8
0
 62
     0
 10
82.7126
 20
1.63573
 30
0.0
 11
82.7126
 21
2.83463
 31
0.0
  0
LINE
  8
0
 62
     0
 10
82.7126
 20
2.83463
 30
0.0
 11
84.4381
 21
2.83463
 31
0.0
  0
LINE
  8
0
 62
     0
 10
84.4381
 20
2.83463
 30
0.0
 11
84.4381
 21
7.30497
 31
0.0
  0
LINE
  8
0
 62
     0
 10
84.4381
 20
7.30497
 30
0.0
 11
124.062
 21
7.30497
 31
0.0
  0
LINE
  8
0
 62
     0
 10
124.062
 20
7.30497
 30
0.0
 11
124.062
 21
2.60587
 31
0.0
  0
LINE
  8
0
 62
     0
 10
124.062
 20
2.60587
 30
0.0
 11
138.063
 21
2.60587
 31
0.0
  0
LINE
  8
0
 62
     0
 10
138.063
 20
2.60587
 30
0.0
 11
138.063
 21
7.30497
 31
0.0
  0
LINE
  8
0
 62
     0
 10
138.063
 20
7.30497
 30
0.0
 11
177.689
 21
7.30497
 31
0.0
  0
LINE
  8
0
 62
     0
 10
177.689
 20
7.30497
 30
0.0
 11
177.689
 21
2.83463
 31
0.0
  0
LINE
  8
0
 62
     0
 10
177.689
 20
2.83463
 30
0.0
 11
179.412
 21
2.83463
 31
0.0
  0
LINE
  8
0
 62
     0
 10
179.412
 20
2.83463
 30
0.0
 11
179.412
 21
1.63573
 31
0.0
  0
LINE
  8
0
 62
     0
 10
179.412
 20
1.63573
 30
0.0
 11
182.713
 21
1.63573
 31
0.0
  0
LINE
  8
0
 62
     0
 10
182.713
 20
1.63573
 30
0.0
 11
182.713
 21
2.83463
 31
0.0
  0
LINE
  8
0
 62
     0
 10
182.713
 20
2.83463
 30
0.0
 11
184.438
 21
2.83463
 31
0.0
  0
LINE
  8
0
 62
     0
 10
184.438
 20
2.83463
 30
0.0
 11
184.438
 21
9.1047
 31
0.0
  0
LINE
  8
0
 62
     0
 10
184.438
 20
9.1047
 30
0.0
 11
185.262
 21
9.1047
 31
0.0
  0
LINE
  8
0
 62
     0
 10
185.262
 20
9.1047
 30
0.0
 11
185.262
 21
11.9049
 31
0.0
  0
LINE
  8
0
 62
     0
 10
185.262
 20
11.9049
 30
0.0
 11
184.438
 21
11.9049
 31
0.0
  0
LINE
  8
0
 62
     0
 10
184.438
 20
11.9049
 30
0.0
 11
184.438
 21
15.135
 31
0.0
  0
LINE
  8
0
 62
     0
 10
184.438
 20
15.135
 30
0.0
 11
177.689
 21
15.135
 31
0.0
  0
LINE
  8
0
 62
     0
 10
177.689
 20
15.135
 30
0.0
 11
177.689
 21
11.9049
 31
0.0
  0
LINE
  8
0
 62
     0
 10
177.689
 20
11.9049
 30
0.0
 11
138.063
 21
11.9049
 31
0.0
  0
LINE
  8
0
 62
     0
 10
138.063
 20
11.9049
 30
0.0
 11
138.063
 21
16.6054
 31
0.0
  0
LINE
  8
0
 62
     0
 10
138.063
 20
16.6054
 30
0.0
 11
124.062
 21
16.6054
 31
0.0
  0
LINE
  8
0
 62
     0
 10
5.00091
 20
16.6054
 30
0.0
 11
19.0004
 21
16.6054
 31
0.0
  0
LINE
  8
0
 62
     0
 10
19.0004
 20
16.6054
 30
0.0
 11
19.0004
 21
2.60587
 31
0.0
  0
LINE
  8
0
 62
     0
 10
19.0004
 20
2.60587
 30
0.0
 11
5.00091
 21
2.60587
 31
0.0
  0
LINE
  8
0
 62
     0
 10
5.00091
 20
2.60587
 30
0.0
 11
5.00091
 21
16.6054
 31
0.0
  0
LINE
  8
0
 62
     0
 10
28.8134
 20
16.6054
 30
0.0
 11
42.8128
 21
16.6054
 31
0.0
  0
LINE
  8
0
 62
     0
 10
42.8128
 20
16.6054
 30
0.0
 11
42.8128
 21
2.60587
 31
0.0
  0
LINE
  8
0
 62
     0
 10
42.8128
 20
2.60587
 30
0.0
 11
28.8134
 21
2.60587
 31
0.0
  0
LINE
  8
0
 62
     0
 10
28.8134
 20
2.60587
 30
0.0
 11
28.8134
 21
16.6054
 31
0.0
  0
LINE
  8
0
 62
     0
 10
52.626
 20
16.6054
 30
0.0
 11
66.6253
 21
16.6054
 31
0.0
  0
LINE
  8
0
 62
     0
 10
66.6253
 20
16.6054
 30
0.0
 11
66.6253
 21
2.60587
 31
0.0
  0
LINE
  8
0
 62
     0
 10
66.6253
 20
2.60587
 30
0.0
 11
52.626
 21
2.60587
 31
0.0
  0
LINE
  8
0
 62
     0
 10
52.626
 20
2.60587
 30
0.0
 11
52.626
 21
16.6054
 31
0.0
  0
LINE
  8
0
 62
     0
 10
195.501
 20
16.6054
 30
0.0
 11
209.5
 21
16.6054
 31
0.0
  0
LINE
  8
0
 62
     0
 10
209.5
 20
16.6054
 30
0.0
 11
209.5
 21
2.60587
 31
0.0
  0
LINE
  8
0
 62
     0
 10
209.5
 20
2.60587
 30
0.0
 11
195.501
 21
2.60587
 31
0.0
  0
LINE
  8
0
 62
     0
 10
195.501
 20
2.60587
 30
0.0
 11
195.501
 21
16.6054
 31
0.0
  0
LINE
  8
0
 62
     0
 10
219.313
 20
16.6054
 30
0.0
 11
233.313
 21
16.6054
 31
0.0
  0
LINE
  8
0
 62
     0
 10
233.313
 20
16.6054
 30
0.0
 11
233.313
 21
2.60587
 31
0.0
  0
LINE
  8
0
 62
     0
 10
233.313
 20
2.60587
 30
0.0
 11
219.313
 21
2.60587
 31
0.0
  0
LINE
  8
0
 62
     0
 10
219.313
 20
2.60587
 30
0.0
 11
219.313
 21
16.6054
 31
0.0
  0
LINE
  8
0
 62
     0
 10
243.126
 20
16.6054
 30
0.0
 11
257.125
 21
16.6054
 31
0.0
  0
LINE
  8
0
 62
     0
 10
257.125
 20
16.6054
 30
0.0
 11
257.125
 21
2.60587
 31
0.0
  0
LINE
  8
0
 62
     0
 10
257.125
 20
2.60587
 30
0.0
 11
243.126
 21
2.60587
 31
0.0
  0
LINE
  8
0
 62
     0
 10
243.126
 20
2.60587
 30
0.0
 11
243.126
 21
16.6054
 31
0.0
  0
LINE
  8
0
 62
     0
 10
266.938
 20
16.6054
 30
0.0
 11
280.938
 21
16.6054
 31
0.0
  0
LINE
  8
0
 62
     0
 10
280.938
 20
16.6054
 30
0.0
 11
280.938
 21
2.60587
 31
0.0
  0
LINE
  8
0
 62
     0
 10
280.938
 20
2.60587
 30
0.0
 11
266.938
 21
2.60587
 31
0.0
  0
LINE
  8
0
 62
     0
 10
266.938
 20
2.60587
 30
0.0
 11
266.938
 21
16.6054
 31
0.0
  0
LINE
  8
0
 62
     0
 10
293.132
 20
16.6054
 30
0.0
 11
307.132
 21
16.6054
 31
0.0
  0
LINE
  8
0
 62
     0
 10
307.132
 20
16.6054
 30
0.0
 11
307.132
 21
2.60587
 31
0.0
  0
LINE
  8
0
 62
     0
 10
307.132
 20
2.60587
 30
0.0
 11
293.132
 21
2.60587
 31
0.0
  0
LINE
  8
0
 62
     0
 10
293.132
 20
2.60587
 30
0.0
 11
293.132
 21
16.6054
 31
0.0
  0
LINE
  8
0
 62
     0
 10
312.182
 20
16.6054
 30
0.0
 11
326.182
 21
16.6054
 31
0.0
  0
LINE
  8
0
 62
     0
 10
326.182
 20
16.6054
 30
0.0
 11
326.182
 21
2.60587
 31
0.0
  0
LINE
  8
0
 62
     0
 10
326.182
 20
2.60587
 30
0.0
 11
312.182
 21
2.60587
 31
0.0
  0
LINE
  8
0
 62
     0
 10
312.182
 20
2.60587
 30
0.0
 11
312.182
 21
16.6054
 31
0.0
  0
LINE
  8
0
 62
     0
 10
331.232
 20
16.6054
 30
0.0
 11
345.232
 21
16.6054
 31
0.0
  0
LINE
  8
0
 62
     0
 10
345.232
 20
16.6054
 30
0.0
 11
345.232
 21
2.60587
 31
0.0
  0
LINE
  8
0
 62
     0
 10
345.232
 20
2.60587
 30
0.0
 11
331.232
 21
2.60587
 31
0.0
  0
LINE
  8
0
 62
     0
 10
331.232
 20
2.60587
 30
0.0
 11
331.232
 21
16.6054
 31
0.0
  0
LINE
  8
0
 62
     0
 10
14.5259
 20
35.6553
 30
0.0
 11
14.5259
 21
30.9549
 31
0.0
  0
LINE
  8
0
 62
     0
 10
14.5259
 20
30.9549
 30
0.0
 11
13.0004
 21
30.9549
 31
0.0
  0
LINE
  8
0
 62
     0
 10
13.0004
 20
30.9549
 30
0.0
 11
13.0004
 21
34.185
 31
0.0
  0
LINE
  8
0
 62
     0
 10
13.0004
 20
34.185
 30
0.0
 11
6.2508
 21
34.185
 31
0.0
  0
LINE
  8
0
 62
     0
 10
6.2508
 20
34.185
 30
0.0
 11
6.2508
 21
30.9549
 31
0.0
  0
LINE
  8
0
 62
     0
 10
6.2508
 20
30.9549
 30
0.0
 11
5.42533
 21
30.9549
 31
0.0
  0
LINE
  8
0
 62
     0
 10
5.42533
 20
30.9549
 30
0.0
 11
5.42533
 21
28.1547
 31
0.0
  0
LINE
  8
0
 62
     0
 10
5.42533
 20
28.1547
 30
0.0
 11
6.2508
 21
28.1547
 31
0.0
  0
LINE
  8
0
 62
     0
 10
6.2508
 20
28.1547
 30
0.0
 11
6.2508
 21
21.8846
 31
0.0
  0
LINE
  8
0
 62
     0
 10
6.2508
 20
21.8846
 30
0.0
 11
7.97609
 21
21.8846
 31
0.0
  0
LINE
  8
0
 62
     0
 10
7.97609
 20
21.8846
 30
0.0
 11
7.97609
 21
20.6857
 31
0.0
  0
LINE
  8
0
 62
     0
 10
7.97609
 20
20.6857
 30
0.0
 11
11.2751
 21
20.6857
 31
0.0
  0
LINE
  8
0
 62
     0
 10
11.2751
 20
20.6857
 30
0.0
 11
11.2751
 21
21.8846
 31
0.0
  0
LINE
  8
0
 62
     0
 10
11.2751
 20
21.8846
 30
0.0
 11
13.0004
 21
21.8846
 31
0.0
  0
LINE
  8
0
 62
     0
 10
13.0004
 20
21.8846
 30
0.0
 11
13.0004
 21
26.355
 31
0.0
  0
LINE
  8
0
 62
     0
 10
13.0004
 20
26.355
 30
0.0
 11
14.5259
 21
26.355
 31
0.0
  0
LINE
  8
0
 62
     0
 10
14.5259
 20
26.355
 30
0.0
 11
14.5259
 21
21.6559
 31
0.0
  0
LINE
  8
0
 62
     0
 10
14.5259
 20
21.6559
 30
0.0
 11
28.5254
 21
21.6559
 31
0.0
  0
LINE
  8
0
 62
     0
 10
28.5254
 20
21.6559
 30
0.0
 11
28.5254
 21
26.355
 31
0.0
  0
LINE
  8
0
 62
     0
 10
28.5254
 20
26.355
 30
0.0
 11
30.0509
 21
26.355
 31
0.0
  0
LINE
  8
0
 62
     0
 10
30.0509
 20
26.355
 30
0.0
 11
30.0509
 21
21.8846
 31
0.0
  0
LINE
  8
0
 62
     0
 10
30.0509
 20
21.8846
 30
0.0
 11
31.7762
 21
21.8846
 31
0.0
  0
LINE
  8
0
 62
     0
 10
31.7762
 20
21.8846
 30
0.0
 11
31.7762
 21
20.6857
 31
0.0
  0
LINE
  8
0
 62
     0
 10
31.7762
 20
20.6857
 30
0.0
 11
35.0752
 21
20.6857
 31
0.0
  0
LINE
  8
0
 62
     0
 10
35.0752
 20
20.6857
 30
0.0
 11
35.0752
 21
21.8846
 31
0.0
  0
LINE
  8
0
 62
     0
 10
35.0752
 20
21.8846
 30
0.0
 11
36.8004
 21
21.8846
 31
0.0
  0
LINE
  8
0
 62
     0
 10
36.8004
 20
21.8846
 30
0.0
 11
36.8004
 21
28.1547
 31
0.0
  0
LINE
  8
0
 62
     0
 10
36.8004
 20
28.1547
 30
0.0
 11
37.6259
 21
28.1547
 31
0.0
  0
LINE
  8
0
 62
     0
 10
37.6259
 20
28.1547
 30
0.0
 11
37.6259
 21
30.9549
 31
0.0
  0
LINE
  8
0
 62
     0
 10
37.6259
 20
30.9549
 30
0.0
 11
36.8004
 21
30.9549
 31
0.0
  0
LINE
  8
0
 62
     0
 10
36.8004
 20
30.9549
 30
0.0
 11
36.8004
 21
34.185
 31
0.0
  0
LINE
  8
0
 62
     0
 10
36.8004
 20
34.185
 30
0.0
 11
30.0509
 21
34.185
 31
0.0
  0
LINE
  8
0
 62
     0
 10
30.0509
 20
34.185
 30
0.0
 11
30.0509
 21
30.9549
 31
0.0
  0
LINE
  8
0
 62
     0
 10
30.0509
 20
30.9549
 30
0.0
 11
28.5254
 21
30.9549
 31
0.0
  0
LINE
  8
0
 62
     0
 10
28.5254
 20
30.9549
 30
0.0
 11
28.5254
 21
35.6553
 31
0.0
  0
LINE
  8
0
 62
     0
 10
28.5254
 20
35.6553
 30
0.0
 11
14.5259
 21
35.6553
 31
0.0
  0
LINE
  8
0
 62
     0
 10
252.65
 20
35.6553
 30
0.0
 11
252.65
 21
30.9549
 31
0.0
  0
LINE
  8
0
 62
     0
 10
252.65
 20
30.9549
 30
0.0
 11
251.126
 21
30.9549
 31
0.0
  0
LINE
  8
0
 62
     0
 10
251.126
 20
30.9549
 30
0.0
 11
251.126
 21
34.185
 31
0.0
  0
LINE
  8
0
 62
     0
 10
251.126
 20
34.185
 30
0.0
 11
244.376
 21
34.185
 31
0.0
  0
LINE
  8
0
 62
     0
 10
244.376
 20
34.185
 30
0.0
 11
244.376
 21
30.9549
 31
0.0
  0
LINE
  8
0
 62
     0
 10
244.376
 20
30.9549
 30
0.0
 11
243.55
 21
30.9549
 31
0.0
  0
LINE
  8
0
 62
     0
 10
243.55
 20
30.9549
 30
0.0
 11
243.55
 21
28.1547
 31
0.0
  0
LINE
  8
0
 62
     0
 10
243.55
 20
28.1547
 30
0.0
 11
244.376
 21
28.1547
 31
0.0
  0
LINE
  8
0
 62
     0
 10
244.376
 20
28.1547
 30
0.0
 11
244.376
 21
21.8846
 31
0.0
  0
LINE
  8
0
 62
     0
 10
244.376
 20
21.8846
 30
0.0
 11
246.101
 21
21.8846
 31
0.0
  0
LINE
  8
0
 62
     0
 10
246.101
 20
21.8846
 30
0.0
 11
246.101
 21
20.6857
 31
0.0
  0
LINE
  8
0
 62
     0
 10
246.101
 20
20.6857
 30
0.0
 11
249.4
 21
20.6857
 31
0.0
  0
LINE
  8
0
 62
     0
 10
249.4
 20
20.6857
 30
0.0
 11
249.4
 21
21.8846
 31
0.0
  0
LINE
  8
0
 62
     0
 10
249.4
 20
21.8846
 30
0.0
 11
251.126
 21
21.8846
 31
0.0
  0
LINE
  8
0
 62
     0
 10
251.126
 20
21.8846
 30
0.0
 11
251.126
 21
26.355
 31
0.0
  0
LINE
  8
0
 62
     0
 10
251.126
 20
26.355
 30
0.0
 11
252.65
 21
26.355
 31
0.0
  0
LINE
  8
0
 62
     0
 10
252.65
 20
26.355
 30
0.0
 11
252.65
 21
21.6559
 31
0.0
  0
LINE
  8
0
 62
     0
 10
252.65
 20
21.6559
 30
0.0
 11
266.65
 21
21.6559
 31
0.0
  0
LINE
  8
0
 62
     0
 10
266.65
 20
21.6559
 30
0.0
 11
266.65
 21
26.355
 31
0.0
  0
LINE
  8
0
 62
     0
 10
266.65
 20
26.355
 30
0.0
 11
268.176
 21
26.355
 31
0.0
  0
LINE
  8
0
 62
     0
 10
268.176
 20
26.355
 30
0.0
 11
268.176
 21
21.8846
 31
0.0
  0
LINE
  8
0
 62
     0
 10
268.176
 20
21.8846
 30
0.0
 11
269.901
 21
21.8846
 31
0.0
  0
LINE
  8
0
 62
     0
 10
269.901
 20
21.8846
 30
0.0
 11
269.901
 21
20.6857
 31
0.0
  0
LINE
  8
0
 62
     0
 10
269.901
 20
20.6857
 30
0.0
 11
273.2
 21
20.6857
 31
0.0
  0
LINE
  8
0
 62
     0
 10
273.2
 20
20.6857
 30
0.0
 11
273.2
 21
21.8846
 31
0.0
  0
LINE
  8
0
 62
     0
 10
273.2
 20
21.8846
 30
0.0
 11
274.925
 21
21.8846
 31
0.0
  0
LINE
  8
0
 62
     0
 10
274.925
 20
21.8846
 30
0.0
 11
274.925
 21
28.1547
 31
0.0
  0
LINE
  8
0
 62
     0
 10
274.925
 20
28.1547
 30
0.0
 11
275.751
 21
28.1547
 31
0.0
  0
LINE
  8
0
 62
     0
 10
275.751
 20
28.1547
 30
0.0
 11
275.751
 21
30.9549
 31
0.0
  0
LINE
  8
0
 62
     0
 10
275.751
 20
30.9549
 30
0.0
 11
274.925
 21
30.9549
 31
0.0
  0
LINE
  8
0
 62
     0
 10
274.925
 20
30.9549
 30
0.0
 11
274.925
 21
34.185
 31
0.0
  0
LINE
  8
0
 62
     0
 10
274.925
 20
34.185
 30
0.0
 11
268.176
 21
34.185
 31
0.0
  0
LINE
  8
0
 62
     0
 10
268.176
 20
34.185
 30
0.0
 11
268.176
 21
30.9549
 31
0.0
  0
LINE
  8
0
 62
     0
 10
268.176
 20
30.9549
 30
0.0
 11
266.65
 21
30.9549
 31
0.0
  0
LINE
  8
0
 62
     0
 10
266.65
 20
30.9549
 30
0.0
 11
266.65
 21
35.6553
 31
0.0
  0
LINE
  8
0
 62
     0
 10
266.65
 20
35.6553
 30
0.0
 11
252.65
 21
35.6553
 31
0.0
  0
LINE
  8
0
 62
     0
 10
45.4822
 20
35.6553
 30
0.0
 11
59.4815
 21
35.6553
 31
0.0
  0
LINE
  8
0
 62
     0
 10
59.4815
 20
35.6553
 30
0.0
 11
59.4815
 21
21.6559
 31
0.0
  0
LINE
  8
0
 62
     0
 10
59.4815
 20
21.6559
 30
0.0
 11
45.4822
 21
21.6559
 31
0.0
  0
LINE
  8
0
 62
     0
 10
45.4822
 20
21.6559
 30
0.0
 11
45.4822
 21
35.6553
 31
0.0
  0
LINE
  8
0
 62
     0
 10
64.5322
 20
35.6553
 30
0.0
 11
78.5315
 21
35.6553
 31
0.0
  0
LINE
  8
0
 62
     0
 10
78.5315
 20
35.6553
 30
0.0
 11
78.5315
 21
21.6559
 31
0.0
  0
LINE
  8
0
 62
     0
 10
78.5315
 20
21.6559
 30
0.0
 11
64.5322
 21
21.6559
 31
0.0
  0
LINE
  8
0
 62
     0
 10
64.5322
 20
21.6559
 30
0.0
 11
64.5322
 21
35.6553
 31
0.0
  0
LINE
  8
0
 62
     0
 10
83.5822
 20
35.6553
 30
0.0
 11
97.5815
 21
35.6553
 31
0.0
  0
LINE
  8
0
 62
     0
 10
97.5815
 20
35.6553
 30
0.0
 11
97.5815
 21
21.6559
 31
0.0
  0
LINE
  8
0
 62
     0
 10
97.5815
 20
21.6559
 30
0.0
 11
83.5822
 21
21.6559
 31
0.0
  0
LINE
  8
0
 62
     0
 10
83.5822
 20
21.6559
 30
0.0
 11
83.5822
 21
35.6553
 31
0.0
  0
LINE
  8
0
 62
     0
 10
102.632
 20
35.6553
 30
0.0
 11
116.632
 21
35.6553
 31
0.0
  0
LINE
  8
0
 62
     0
 10
116.632
 20
35.6553
 30
0.0
 11
116.632
 21
21.6559
 31
0.0
  0
LINE
  8
0
 62
     0
 10
116.632
 20
21.6559
 30
0.0
 11
102.632
 21
21.6559
 31
0.0
  0
LINE
  8
0
 62
     0
 10
102.632
 20
21.6559
 30
0.0
 11
102.632
 21
35.6553
 31
0.0
  0
LINE
  8
0
 62
     0
 10
121.682
 20
35.6553
 30
0.0
 11
135.682
 21
35.6553
 31
0.0
  0
LINE
  8
0
 62
     0
 10
135.682
 20
35.6553
 30
0.0
 11
135.682
 21
21.6559
 31
0.0
  0
LINE
  8
0
 62
     0
 10
135.682
 20
21.6559
 30
0.0
 11
121.682
 21
21.6559
 31
0.0
  0
LINE
  8
0
 62
     0
 10
121.682
 20
21.6559
 30
0.0
 11
121.682
 21
35.6553
 31
0.0
  0
LINE
  8
0
 62
     0
 10
140.732
 20
35.6553
 30
0.0
 11
154.732
 21
35.6553
 31
0.0
  0
LINE
  8
0
 62
     0
 10
154.732
 20
35.6553
 30
0.0
 11
154.732
 21
21.6559
 31
0.0
  0
LINE
  8
0
 62
     0
 10
154.732
 20
21.6559
 30
0.0
 11
140.732
 21
21.6559
 31
0.0
  0
LINE
  8
0
 62
     0
 10
140.732
 20
21.6559
 30
0.0
 11
140.732
 21
35.6553
 31
0.0
  0
LINE
  8
0
 62
     0
 10
159.782
 20
35.6553
 30
0.0
 11
173.782
 21
35.6553
 31
0.0
  0
LINE
  8
0
 62
     0
 10
173.782
 20
35.6553
 30
0.0
 11
173.782
 21
21.6559
 31
0.0
  0
LINE
  8
0
 62
     0
 10
173.782
 20
21.6559
 30
0.0
 11
159.782
 21
21.6559
 31
0.0
  0
LINE
  8
0
 62
     0
 10
159.782
 20
21.6559
 30
0.0
 11
159.782
 21
35.6553
 31
0.0
  0
LINE
  8
0
 62
     0
 10
178.832
 20
35.6553
 30
0.0
 11
192.832
 21
35.6553
 31
0.0
  0
LINE
  8
0
 62
     0
 10
192.832
 20
35.6553
 30
0.0
 11
192.832
 21
21.6559
 31
0.0
  0
LINE
  8
0
 62
     0
 10
192.832
 20
21.6559
 30
0.0
 11
178.832
 21
21.6559
 31
0.0
  0
LINE
  8
0
 62
     0
 10
178.832
 20
21.6559
 30
0.0
 11
178.832
 21
35.6553
 31
0.0
  0
LINE
  8
0
 62
     0
 10
197.882
 20
35.6553
 30
0.0
 11
211.882
 21
35.6553
 31
0.0
  0
LINE
  8
0
 62
     0
 10
211.882
 20
35.6553
 30
0.0
 11
211.882
 21
21.6559
 31
0.0
  0
LINE
  8
0
 62
     0
 10
211.882
 20
21.6559
 30
0.0
 11
197.882
 21
21.6559
 31
0.0
  0
LINE
  8
0
 62
     0
 10
197.882
 20
21.6559
 30
0.0
 11
197.882
 21
35.6553
 31
0.0
  0
LINE
  8
0
 62
     0
 10
216.932
 20
35.6553
 30
0.0
 11
230.932
 21
35.6553
 31
0.0
  0
LINE
  8
0
 62
     0
 10
230.932
 20
35.6553
 30
0.0
 11
230.932
 21
21.6559
 31
0.0
  0
LINE
  8
0
 62
     0
 10
230.932
 20
21.6559
 30
0.0
 11
216.932
 21
21.6559
 31
0.0
  0
LINE
  8
0
 62
     0
 10
216.932
 20
21.6559
 30
0.0
 11
216.932
 21
35.6553
 31
0.0
  0
LINE
  8
0
 62
     0
 10
312.182
 20
35.6553
 30
0.0
 11
326.182
 21
35.6553
 31
0.0
  0
LINE
  8
0
 62
     0
 10
326.182
 20
35.6553
 30
0.0
 11
326.182
 21
21.6559
 31
0.0
  0
LINE
  8
0
 62
     0
 10
326.182
 20
21.6559
 30
0.0
 11
312.182
 21
21.6559
 31
0.0
  0
LINE
  8
0
 62
     0
 10
312.182
 20
21.6559
 30
0.0
 11
312.182
 21
35.6553
 31
0.0
  0
LINE
  8
0
 62
     0
 10
257.413
 20
54.7053
 30
0.0
 11
257.413
 21
50.0048
 31
0.0
  0
LINE
  8
0
 62
     0
 10
257.413
 20
50.0048
 30
0.0
 11
255.888
 21
50.0048
 31
0.0
  0
LINE
  8
0
 62
     0
 10
255.888
 20
50.0048
 30
0.0
 11
255.888
 21
53.2349
 31
0.0
  0
LINE
  8
0
 62
     0
 10
255.888
 20
53.2349
 30
0.0
 11
249.138
 21
53.2349
 31
0.0
  0
LINE
  8
0
 62
     0
 10
249.138
 20
53.2349
 30
0.0
 11
249.138
 21
50.0048
 31
0.0
  0
LINE
  8
0
 62
     0
 10
249.138
 20
50.0048
 30
0.0
 11
248.313
 21
50.0048
 31
0.0
  0
LINE
  8
0
 62
     0
 10
248.313
 20
50.0048
 30
0.0
 11
248.313
 21
47.2048
 31
0.0
  0
LINE
  8
0
 62
     0
 10
248.313
 20
47.2048
 30
0.0
 11
249.138
 21
47.2048
 31
0.0
  0
LINE
  8
0
 62
     0
 10
249.138
 20
47.2048
 30
0.0
 11
249.138
 21
40.9346
 31
0.0
  0
LINE
  8
0
 62
     0
 10
249.138
 20
40.9346
 30
0.0
 11
250.862
 21
40.9346
 31
0.0
  0
LINE
  8
0
 62
     0
 10
250.862
 20
40.9346
 30
0.0
 11
250.862
 21
39.7358
 31
0.0
  0
LINE
  8
0
 62
     0
 10
250.862
 20
39.7358
 30
0.0
 11
254.161
 21
39.7358
 31
0.0
  0
LINE
  8
0
 62
     0
 10
254.161
 20
39.7358
 30
0.0
 11
254.161
 21
40.9346
 31
0.0
  0
LINE
  8
0
 62
     0
 10
254.161
 20
40.9346
 30
0.0
 11
255.888
 21
40.9346
 31
0.0
  0
LINE
  8
0
 62
     0
 10
255.888
 20
40.9346
 30
0.0
 11
255.888
 21
45.405
 31
0.0
  0
LINE
  8
0
 62
     0
 10
255.888
 20
45.405
 30
0.0
 11
257.413
 21
45.405
 31
0.0
  0
LINE
  8
0
 62
     0
 10
257.413
 20
45.405
 30
0.0
 11
257.413
 21
40.706
 31
0.0
  0
LINE
  8
0
 62
     0
 10
257.413
 20
40.706
 30
0.0
 11
271.413
 21
40.706
 31
0.0
  0
LINE
  8
0
 62
     0
 10
271.413
 20
40.706
 30
0.0
 11
271.413
 21
45.405
 31
0.0
  0
LINE
  8
0
 62
     0
 10
271.413
 20
45.405
 30
0.0
 11
272.939
 21
45.405
 31
0.0
  0
LINE
  8
0
 62
     0
 10
272.939
 20
45.405
 30
0.0
 11
272.939
 21
40.9346
 31
0.0
  0
LINE
  8
0
 62
     0
 10
272.939
 20
40.9346
 30
0.0
 11
274.662
 21
40.9346
 31
0.0
  0
LINE
  8
0
 62
     0
 10
274.662
 20
40.9346
 30
0.0
 11
274.662
 21
39.7358
 31
0.0
  0
LINE
  8
0
 62
     0
 10
274.662
 20
39.7358
 30
0.0
 11
277.963
 21
39.7358
 31
0.0
  0
LINE
  8
0
 62
     0
 10
277.963
 20
39.7358
 30
0.0
 11
277.963
 21
40.9346
 31
0.0
  0
LINE
  8
0
 62
     0
 10
277.963
 20
40.9346
 30
0.0
 11
279.688
 21
40.9346
 31
0.0
  0
LINE
  8
0
 62
     0
 10
279.688
 20
40.9346
 30
0.0
 11
279.688
 21
47.2048
 31
0.0
  0
LINE
  8
0
 62
     0
 10
279.688
 20
47.2048
 30
0.0
 11
280.512
 21
47.2048
 31
0.0
  0
LINE
  8
0
 62
     0
 10
280.512
 20
47.2048
 30
0.0
 11
280.512
 21
50.0048
 31
0.0
  0
LINE
  8
0
 62
     0
 10
280.512
 20
50.0048
 30
0.0
 11
279.688
 21
50.0048
 31
0.0
  0
LINE
  8
0
 62
     0
 10
279.688
 20
50.0048
 30
0.0
 11
279.688
 21
53.2349
 31
0.0
  0
LINE
  8
0
 62
     0
 10
279.688
 20
53.2349
 30
0.0
 11
272.939
 21
53.2349
 31
0.0
  0
LINE
  8
0
 62
     0
 10
272.939
 20
53.2349
 30
0.0
 11
272.939
 21
50.0048
 31
0.0
  0
LINE
  8
0
 62
     0
 10
272.939
 20
50.0048
 30
0.0
 11
271.413
 21
50.0048
 31
0.0
  0
LINE
  8
0
 62
     0
 10
271.413
 20
50.0048
 30
0.0
 11
271.413
 21
54.7053
 31
0.0
  0
LINE
  8
0
 62
     0
 10
271.413
 20
54.7053
 30
0.0
 11
257.413
 21
54.7053
 31
0.0
  0
LINE
  8
0
 62
     0
 10
9.76341
 20
54.7053
 30
0.0
 11
23.7629
 21
54.7053
 31
0.0
  0
LINE
  8
0
 62
     0
 10
23.7629
 20
54.7053
 30
0.0
 11
23.7629
 21
40.706
 31
0.0
  0
LINE
  8
0
 62
     0
 10
23.7629
 20
40.706
 30
0.0
 11
9.76341
 21
40.706
 31
0.0
  0
LINE
  8
0
 62
     0
 10
9.76341
 20
40.706
 30
0.0
 11
9.76341
 21
54.7053
 31
0.0
  0
LINE
  8
0
 62
     0
 10
35.9572
 20
54.7053
 30
0.0
 11
49.9565
 21
54.7053
 31
0.0
  0
LINE
  8
0
 62
     0
 10
49.9565
 20
54.7053
 30
0.0
 11
49.9565
 21
40.706
 31
0.0
  0
LINE
  8
0
 62
     0
 10
49.9565
 20
40.706
 30
0.0
 11
35.9572
 21
40.706
 31
0.0
  0
LINE
  8
0
 62
     0
 10
35.9572
 20
40.706
 30
0.0
 11
35.9572
 21
54.7053
 31
0.0
  0
LINE
  8
0
 62
     0
 10
55.0072
 20
54.7053
 30
0.0
 11
69.0065
 21
54.7053
 31
0.0
  0
LINE
  8
0
 62
     0
 10
69.0065
 20
54.7053
 30
0.0
 11
69.0065
 21
40.706
 31
0.0
  0
LINE
  8
0
 62
     0
 10
69.0065
 20
40.706
 30
0.0
 11
55.0072
 21
40.706
 31
0.0
  0
LINE
  8
0
 62
     0
 10
55.0072
 20
40.706
 30
0.0
 11
55.0072
 21
54.7053
 31
0.0
  0
LINE
  8
0
 62
     0
 10
74.0572
 20
54.7053
 30
0.0
 11
88.0565
 21
54.7053
 31
0.0
  0
LINE
  8
0
 62
     0
 10
88.0565
 20
54.7053
 30
0.0
 11
88.0565
 21
40.706
 31
0.0
  0
LINE
  8
0
 62
     0
 10
88.0565
 20
40.706
 30
0.0
 11
74.0572
 21
40.706
 31
0.0
  0
LINE
  8
0
 62
     0
 10
74.0572
 20
40.706
 30
0.0
 11
74.0572
 21
54.7053
 31
0.0
  0
LINE
  8
0
 62
     0
 10
93.1072
 20
54.7053
 30
0.0
 11
107.107
 21
54.7053
 31
0.0
  0
LINE
  8
0
 62
     0
 10
107.107
 20
54.7053
 30
0.0
 11
107.107
 21
40.706
 31
0.0
  0
LINE
  8
0
 62
     0
 10
107.107
 20
40.706
 30
0.0
 11
93.1072
 21
40.706
 31
0.0
  0
LINE
  8
0
 62
     0
 10
93.1072
 20
40.706
 30
0.0
 11
93.1072
 21
54.7053
 31
0.0
  0
LINE
  8
0
 62
     0
 10
112.157
 20
54.7053
 30
0.0
 11
126.157
 21
54.7053
 31
0.0
  0
LINE
  8
0
 62
     0
 10
126.157
 20
54.7053
 30
0.0
 11
126.157
 21
40.706
 31
0.0
  0
LINE
  8
0
 62
     0
 10
126.157
 20
40.706
 30
0.0
 11
112.157
 21
40.706
 31
0.0
  0
LINE
  8
0
 62
     0
 10
112.157
 20
40.706
 30
0.0
 11
112.157
 21
54.7053
 31
0.0
  0
LINE
  8
0
 62
     0
 10
131.207
 20
54.7053
 30
0.0
 11
145.207
 21
54.7053
 31
0.0
  0
LINE
  8
0
 62
     0
 10
145.207
 20
54.7053
 30
0.0
 11
145.207
 21
40.706
 31
0.0
  0
LINE
  8
0
 62
     0
 10
145.207
 20
40.706
 30
0.0
 11
131.207
 21
40.706
 31
0.0
  0
LINE
  8
0
 62
     0
 10
131.207
 20
40.706
 30
0.0
 11
131.207
 21
54.7053
 31
0.0
  0
LINE
  8
0
 62
     0
 10
150.257
 20
54.7053
 30
0.0
 11
164.257
 21
54.7053
 31
0.0
  0
LINE
  8
0
 62
     0
 10
164.257
 20
54.7053
 30
0.0
 11
164.257
 21
40.706
 31
0.0
  0
LINE
  8
0
 62
     0
 10
164.257
 20
40.706
 30
0.0
 11
150.257
 21
40.706
 31
0.0
  0
LINE
  8
0
 62
     0
 10
150.257
 20
40.706
 30
0.0
 11
150.257
 21
54.7053
 31
0.0
  0
LINE
  8
0
 62
     0
 10
169.307
 20
54.7053
 30
0.0
 11
183.307
 21
54.7053
 31
0.0
  0
LINE
  8
0
 62
     0
 10
183.307
 20
54.7053
 30
0.0
 11
183.307
 21
40.706
 31
0.0
  0
LINE
  8
0
 62
     0
 10
183.307
 20
40.706
 30
0.0
 11
169.307
 21
40.706
 31
0.0
  0
LINE
  8
0
 62
     0
 10
169.307
 20
40.706
 30
0.0
 11
169.307
 21
54.7053
 31
0.0
  0
LINE
  8
0
 62
     0
 10
188.357
 20
54.7053
 30
0.0
 11
202.357
 21
54.7053
 31
0.0
  0
LINE
  8
0
 62
     0
 10
202.357
 20
54.7053
 30
0.0
 11
202.357
 21
40.706
 31
0.0
  0
LINE
  8
0
 62
     0
 10
202.357
 20
40.706
 30
0.0
 11
188.357
 21
40.706
 31
0.0
  0
LINE
  8
0
 62
     0
 10
188.357
 20
40.706
 30
0.0
 11
188.357
 21
54.7053
 31
0.0
  0
LINE
  8
0
 62
     0
 10
207.407
 20
54.7053
 30
0.0
 11
221.407
 21
54.7053
 31
0.0
  0
LINE
  8
0
 62
     0
 10
221.407
 20
54.7053
 30
0.0
 11
221.407
 21
40.706
 31
0.0
  0
LINE
  8
0
 62
     0
 10
221.407
 20
40.706
 30
0.0
 11
207.407
 21
40.706
 31
0.0
  0
LINE
  8
0
 62
     0
 10
207.407
 20
40.706
 30
0.0
 11
207.407
 21
54.7053
 31
0.0
  0
LINE
  8
0
 62
     0
 10
226.457
 20
54.7053
 30
0.0
 11
240.457
 21
54.7053
 31
0.0
  0
LINE
  8
0
 62
     0
 10
240.457
 20
54.7053
 30
0.0
 11
240.457
 21
40.706
 31
0.0
  0
LINE
  8
0
 62
     0
 10
240.457
 20
40.706
 30
0.0
 11
226.457
 21
40.706
 31
0.0
  0
LINE
  8
0
 62
     0
 10
226.457
 20
40.706
 30
0.0
 11
226.457
 21
54.7053
 31
0.0
  0
LINE
  8
0
 62
     0
 10
7.38216
 20
73.7553
 30
0.0
 11
21.3817
 21
73.7553
 31
0.0
  0
LINE
  8
0
 62
     0
 10
21.3817
 20
73.7553
 30
0.0
 11
21.3817
 21
59.756
 31
0.0
  0
LINE
  8
0
 62
     0
 10
21.3817
 20
59.756
 30
0.0
 11
7.38216
 21
59.756
 31
0.0
  0
LINE
  8
0
 62
     0
 10
7.38216
 20
59.756
 30
0.0
 11
7.38216
 21
73.7553
 31
0.0
  0
LINE
  8
0
 62
     0
 10
31.1947
 20
73.7553
 30
0.0
 11
45.194
 21
73.7553
 31
0.0
  0
LINE
  8
0
 62
     0
 10
45.194
 20
73.7553
 30
0.0
 11
45.194
 21
59.756
 31
0.0
  0
LINE
  8
0
 62
     0
 10
45.194
 20
59.756
 30
0.0
 11
31.1947
 21
59.756
 31
0.0
  0
LINE
  8
0
 62
     0
 10
31.1947
 20
59.756
 30
0.0
 11
31.1947
 21
73.7553
 31
0.0
  0
LINE
  8
0
 62
     0
 10
50.2447
 20
73.7553
 30
0.0
 11
64.244
 21
73.7553
 31
0.0
  0
LINE
  8
0
 62
     0
 10
64.244
 20
73.7553
 30
0.0
 11
64.244
 21
59.756
 31
0.0
  0
LINE
  8
0
 62
     0
 10
64.244
 20
59.756
 30
0.0
 11
50.2447
 21
59.756
 31
0.0
  0
LINE
  8
0
 62
     0
 10
50.2447
 20
59.756
 30
0.0
 11
50.2447
 21
73.7553
 31
0.0
  0
LINE
  8
0
 62
     0
 10
69.2947
 20
73.7553
 30
0.0
 11
83.294
 21
73.7553
 31
0.0
  0
LINE
  8
0
 62
     0
 10
83.294
 20
73.7553
 30
0.0
 11
83.294
 21
59.756
 31
0.0
  0
LINE
  8
0
 62
     0
 10
83.294
 20
59.756
 30
0.0
 11
69.2947
 21
59.756
 31
0.0
  0
LINE
  8
0
 62
     0
 10
69.2947
 20
59.756
 30
0.0
 11
69.2947
 21
73.7553
 31
0.0
  0
LINE
  8
0
 62
     0
 10
88.3447
 20
73.7553
 30
0.0
 11
102.344
 21
73.7553
 31
0.0
  0
LINE
  8
0
 62
     0
 10
102.344
 20
73.7553
 30
0.0
 11
102.344
 21
59.756
 31
0.0
  0
LINE
  8
0
 62
     0
 10
102.344
 20
59.756
 30
0.0
 11
88.3447
 21
59.756
 31
0.0
  0
LINE
  8
0
 62
     0
 10
88.3447
 20
59.756
 30
0.0
 11
88.3447
 21
73.7553
 31
0.0
  0
LINE
  8
0
 62
     0
 10
107.395
 20
73.7553
 30
0.0
 11
121.394
 21
73.7553
 31
0.0
  0
LINE
  8
0
 62
     0
 10
121.394
 20
73.7553
 30
0.0
 11
121.394
 21
59.756
 31
0.0
  0
LINE
  8
0
 62
     0
 10
121.394
 20
59.756
 30
0.0
 11
107.395
 21
59.756
 31
0.0
  0
LINE
  8
0
 62
     0
 10
107.395
 20
59.756
 30
0.0
 11
107.395
 21
73.7553
 31
0.0
  0
LINE
  8
0
 62
     0
 10
126.445
 20
73.7553
 30
0.0
 11
140.444
 21
73.7553
 31
0.0
  0
LINE
  8
0
 62
     0
 10
140.444
 20
73.7553
 30
0.0
 11
140.444
 21
59.756
 31
0.0
  0
LINE
  8
0
 62
     0
 10
140.444
 20
59.756
 30
0.0
 11
126.445
 21
59.756
 31
0.0
  0
LINE
  8
0
 62
     0
 10
126.445
 20
59.756
 30
0.0
 11
126.445
 21
73.7553
 31
0.0
  0
LINE
  8
0
 62
     0
 10
145.495
 20
73.7553
 30
0.0
 11
159.494
 21
73.7553
 31
0.0
  0
LINE
  8
0
 62
     0
 10
159.494
 20
73.7553
 30
0.0
 11
159.494
 21
59.756
 31
0.0
  0
LINE
  8
0
 62
     0
 10
159.494
 20
59.756
 30
0.0
 11
145.495
 21
59.756
 31
0.0
  0
LINE
  8
0
 62
     0
 10
145.495
 20
59.756
 30
0.0
 11
145.495
 21
73.7553
 31
0.0
  0
LINE
  8
0
 62
     0
 10
164.545
 20
73.7553
 30
0.0
 11
178.544
 21
73.7553
 31
0.0
  0
LINE
  8
0
 62
     0
 10
178.544
 20
73.7553
 30
0.0
 11
178.544
 21
59.756
 31
0.0
  0
LINE
  8
0
 62
     0
 10
178.544
 20
59.756
 30
0.0
 11
164.545
 21
59.756
 31
0.0
  0
LINE
  8
0
 62
     0
 10
164.545
 20
59.756
 30
0.0
 11
164.545
 21
73.7553
 31
0.0
  0
LINE
  8
0
 62
     0
 10
183.595
 20
73.7553
 30
0.0
 11
197.594
 21
73.7553
 31
0.0
  0
LINE
  8
0
 62
     0
 10
197.594
 20
73.7553
 30
0.0
 11
197.594
 21
59.756
 31
0.0
  0
LINE
  8
0
 62
     0
 10
197.594
 20
59.756
 30
0.0
 11
183.595
 21
59.756
 31
0.0
  0
LINE
  8
0
 62
     0
 10
183.595
 20
59.756
 30
0.0
 11
183.595
 21
73.7553
 31
0.0
  0
LINE
  8
0
 62
     0
 10
202.645
 20
73.7553
 30
0.0
 11
216.644
 21
73.7553
 31
0.0
  0
LINE
  8
0
 62
     0
 10
216.644
 20
73.7553
 30
0.0
 11
216.644
 21
59.756
 31
0.0
  0
LINE
  8
0
 62
     0
 10
216.644
 20
59.756
 30
0.0
 11
202.645
 21
59.756
 31
0.0
  0
LINE
  8
0
 62
     0
 10
202.645
 20
59.756
 30
0.0
 11
202.645
 21
73.7553
 31
0.0
  0
LINE
  8
0
 62
     0
 10
221.695
 20
73.7553
 30
0.0
 11
235.694
 21
73.7553
 31
0.0
  0
LINE
  8
0
 62
     0
 10
235.694
 20
73.7553
 30
0.0
 11
235.694
 21
59.756
 31
0.0
  0
LINE
  8
0
 62
     0
 10
235.694
 20
59.756
 30
0.0
 11
221.695
 21
59.756
 31
0.0
  0
LINE
  8
0
 62
     0
 10
221.695
 20
59.756
 30
0.0
 11
221.695
 21
73.7553
 31
0.0
  0
LINE
  8
0
 62
     0
 10
240.745
 20
73.7553
 30
0.0
 11
254.744
 21
73.7553
 31
0.0
  0
LINE
  8
0
 62
     0
 10
254.744
 20
73.7553
 30
0.0
 11
254.744
 21
59.756
 31
0.0
  0
LINE
  8
0
 62
     0
 10
254.744
 20
59.756
 30
0.0
 11
240.745
 21
59.756
 31
0.0
  0
LINE
  8
0
 62
     0
 10
240.745
 20
59.756
 30
0.0
 11
240.745
 21
73.7553
 31
0.0
  0
LINE
  8
0
 62
     0
 10
264.557
 20
73.7553
 30
0.0
 11
278.557
 21
73.7553
 31
0.0
  0
LINE
  8
0
 62
     0
 10
278.557
 20
73.7553
 30
0.0
 11
278.557
 21
59.756
 31
0.0
  0
LINE
  8
0
 62
     0
 10
278.557
 20
59.756
 30
0.0
 11
264.557
 21
59.756
 31
0.0
  0
LINE
  8
0
 62
     0
 10
264.557
 20
59.756
 30
0.0
 11
264.557
 21
73.7553
 31
0.0
  0
LINE
  8
0
 62
     0
 10
293.132
 20
73.7553
 30
0.0
 11
307.132
 21
73.7553
 31
0.0
  0
LINE
  8
0
 62
     0
 10
307.132
 20
73.7553
 30
0.0
 11
307.132
 21
59.756
 31
0.0
  0
LINE
  8
0
 62
     0
 10
307.132
 20
59.756
 30
0.0
 11
293.132
 21
59.756
 31
0.0
  0
LINE
  8
0
 62
     0
 10
293.132
 20
59.756
 30
0.0
 11
293.132
 21
73.7553
 31
0.0
  0
LINE
  8
0
 62
     0
 10
312.182
 20
73.7553
 30
0.0
 11
326.182
 21
73.7553
 31
0.0
  0
LINE
  8
0
 62
     0
 10
326.182
 20
73.7553
 30
0.0
 11
326.182
 21
59.756
 31
0.0
  0
LINE
  8
0
 62
     0
 10
326.182
 20
59.756
 30
0.0
 11
312.182
 21
59.756
 31
0.0
  0
LINE
  8
0
 62
     0
 10
312.182
 20
59.756
 30
0.0
 11
312.182
 21
73.7553
 31
0.0
  0
LINE
  8
0
 62
     0
 10
331.232
 20
73.7553
 30
0.0
 11
345.232
 21
73.7553
 31
0.0
  0
LINE
  8
0
 62
     0
 10
345.232
 20
73.7553
 30
0.0
 11
345.232
 21
59.756
 31
0.0
  0
LINE
  8
0
 62
     0
 10
345.232
 20
59.756
 30
0.0
 11
331.232
 21
59.756
 31
0.0
  0
LINE
  8
0
 62
     0
 10
331.232
 20
59.756
 30
0.0
 11
331.232
 21
73.7553
 31
0.0
  0
LINE
  8
0
 62
     0
 10
259.795
 20
92.8053
 30
0.0
 11
259.795
 21
88.1048
 31
0.0
  0
LINE
  8
0
 62
     0
 10
259.795
 20
88.1048
 30
0.0
 11
258.269
 21
88.1048
 31
0.0
  0
LINE
  8
0
 62
     0
 10
258.269
 20
88.1048
 30
0.0
 11
258.269
 21
91.3349
 31
0.0
  0
LINE
  8
0
 62
     0
 10
258.269
 20
91.3349
 30
0.0
 11
251.52
 21
91.3349
 31
0.0
  0
LINE
  8
0
 62
     0
 10
251.52
 20
91.3349
 30
0.0
 11
251.52
 21
88.1048
 31
0.0
  0
LINE
  8
0
 62
     0
 10
251.52
 20
88.1048
 30
0.0
 11
250.694
 21
88.1048
 31
0.0
  0
LINE
  8
0
 62
     0
 10
250.694
 20
88.1048
 30
0.0
 11
250.694
 21
85.3048
 31
0.0
  0
LINE
  8
0
 62
     0
 10
250.694
 20
85.3048
 30
0.0
 11
251.52
 21
85.3048
 31
0.0
  0
LINE
  8
0
 62
     0
 10
251.52
 20
85.3048
 30
0.0
 11
251.52
 21
79.0346
 31
0.0
  0
LINE
  8
0
 62
     0
 10
251.52
 20
79.0346
 30
0.0
 11
253.243
 21
79.0346
 31
0.0
  0
LINE
  8
0
 62
     0
 10
253.243
 20
79.0346
 30
0.0
 11
253.243
 21
77.8358
 31
0.0
  0
LINE
  8
0
 62
     0
 10
253.243
 20
77.8358
 30
0.0
 11
256.545
 21
77.8358
 31
0.0
  0
LINE
  8
0
 62
     0
 10
256.545
 20
77.8358
 30
0.0
 11
256.545
 21
79.0346
 31
0.0
  0
LINE
  8
0
 62
     0
 10
256.545
 20
79.0346
 30
0.0
 11
258.269
 21
79.0346
 31
0.0
  0
LINE
  8
0
 62
     0
 10
258.269
 20
79.0346
 30
0.0
 11
258.269
 21
83.505
 31
0.0
  0
LINE
  8
0
 62
     0
 10
258.269
 20
83.505
 30
0.0
 11
259.795
 21
83.505
 31
0.0
  0
LINE
  8
0
 62
     0
 10
259.795
 20
83.505
 30
0.0
 11
259.795
 21
78.806
 31
0.0
  0
LINE
  8
0
 62
     0
 10
259.795
 20
78.806
 30
0.0
 11
273.794
 21
78.806
 31
0.0
  0
LINE
  8
0
 62
     0
 10
273.794
 20
78.806
 30
0.0
 11
273.794
 21
83.505
 31
0.0
  0
LINE
  8
0
 62
     0
 10
273.794
 20
83.505
 30
0.0
 11
275.32
 21
83.505
 31
0.0
  0
LINE
  8
0
 62
     0
 10
275.32
 20
83.505
 30
0.0
 11
275.32
 21
79.0346
 31
0.0
  0
LINE
  8
0
 62
     0
 10
275.32
 20
79.0346
 30
0.0
 11
277.045
 21
79.0346
 31
0.0
  0
LINE
  8
0
 62
     0
 10
277.045
 20
79.0346
 30
0.0
 11
277.045
 21
77.8358
 31
0.0
  0
LINE
  8
0
 62
     0
 10
277.045
 20
77.8358
 30
0.0
 11
280.345
 21
77.8358
 31
0.0
  0
LINE
  8
0
 62
     0
 10
280.345
 20
77.8358
 30
0.0
 11
280.345
 21
79.0346
 31
0.0
  0
LINE
  8
0
 62
     0
 10
280.345
 20
79.0346
 30
0.0
 11
282.069
 21
79.0346
 31
0.0
  0
LINE
  8
0
 62
     0
 10
282.069
 20
79.0346
 30
0.0
 11
282.069
 21
85.3048
 31
0.0
  0
LINE
  8
0
 62
     0
 10
282.069
 20
85.3048
 30
0.0
 11
282.895
 21
85.3048
 31
0.0
  0
LINE
  8
0
 62
     0
 10
282.895
 20
85.3048
 30
0.0
 11
282.895
 21
88.1048
 31
0.0
  0
LINE
  8
0
 62
     0
 10
282.895
 20
88.1048
 30
0.0
 11
282.069
 21
88.1048
 31
0.0
  0
LINE
  8
0
 62
     0
 10
282.069
 20
88.1048
 30
0.0
 11
282.069
 21
91.3349
 31
0.0
  0
LINE
  8
0
 62
     0
 10
282.069
 20
91.3349
 30
0.0
 11
275.32
 21
91.3349
 31
0.0
  0
LINE
  8
0
 62
     0
 10
275.32
 20
91.3349
 30
0.0
 11
275.32
 21
88.1048
 31
0.0
  0
LINE
  8
0
 62
     0
 10
275.32
 20
88.1048
 30
0.0
 11
273.794
 21
88.1048
 31
0.0
  0
LINE
  8
0
 62
     0
 10
273.794
 20
88.1048
 30
0.0
 11
273.794
 21
92.8053
 31
0.0
  0
LINE
  8
0
 62
     0
 10
273.794
 20
92.8053
 30
0.0
 11
259.795
 21
92.8053
 31
0.0
  0
LINE
  8
0
 62
     0
 10
2.61965
 20
92.8053
 30
0.0
 11
16.6192
 21
92.8053
 31
0.0
  0
LINE
  8
0
 62
     0
 10
16.6192
 20
92.8053
 30
0.0
 11
16.6192
 21
78.806
 31
0.0
  0
LINE
  8
0
 62
     0
 10
16.6192
 20
78.806
 30
0.0
 11
2.61965
 21
78.806
 31
0.0
  0
LINE
  8
0
 62
     0
 10
2.61965
 20
78.806
 30
0.0
 11
2.61965
 21
92.8053
 31
0.0
  0
LINE
  8
0
 62
     0
 10
21.6697
 20
92.8053
 30
0.0
 11
35.669
 21
92.8053
 31
0.0
  0
LINE
  8
0
 62
     0
 10
35.669
 20
92.8053
 30
0.0
 11
35.669
 21
78.806
 31
0.0
  0
LINE
  8
0
 62
     0
 10
35.669
 20
78.806
 30
0.0
 11
21.6697
 21
78.806
 31
0.0
  0
LINE
  8
0
 62
     0
 10
21.6697
 20
78.806
 30
0.0
 11
21.6697
 21
92.8053
 31
0.0
  0
LINE
  8
0
 62
     0
 10
40.7197
 20
92.8053
 30
0.0
 11
54.719
 21
92.8053
 31
0.0
  0
LINE
  8
0
 62
     0
 10
54.719
 20
92.8053
 30
0.0
 11
54.719
 21
78.806
 31
0.0
  0
LINE
  8
0
 62
     0
 10
54.719
 20
78.806
 30
0.0
 11
40.7197
 21
78.806
 31
0.0
  0
LINE
  8
0
 62
     0
 10
40.7197
 20
78.806
 30
0.0
 11
40.7197
 21
92.8053
 31
0.0
  0
LINE
  8
0
 62
     0
 10
59.7697
 20
92.8053
 30
0.0
 11
73.769
 21
92.8053
 31
0.0
  0
LINE
  8
0
 62
     0
 10
73.769
 20
92.8053
 30
0.0
 11
73.769
 21
78.806
 31
0.0
  0
LINE
  8
0
 62
     0
 10
73.769
 20
78.806
 30
0.0
 11
59.7697
 21
78.806
 31
0.0
  0
LINE
  8
0
 62
     0
 10
59.7697
 20
78.806
 30
0.0
 11
59.7697
 21
92.8053
 31
0.0
  0
LINE
  8
0
 62
     0
 10
78.8197
 20
92.8053
 30
0.0
 11
92.819
 21
92.8053
 31
0.0
  0
LINE
  8
0
 62
     0
 10
92.819
 20
92.8053
 30
0.0
 11
92.819
 21
78.806
 31
0.0
  0
LINE
  8
0
 62
     0
 10
92.819
 20
78.806
 30
0.0
 11
78.8197
 21
78.806
 31
0.0
  0
LINE
  8
0
 62
     0
 10
78.8197
 20
78.806
 30
0.0
 11
78.8197
 21
92.8053
 31
0.0
  0
LINE
  8
0
 62
     0
 10
97.8683
 20
92.8053
 30
0.0
 11
111.869
 21
92.8053
 31
0.0
  0
LINE
  8
0
 62
     0
 10
111.869
 20
92.8053
 30
0.0
 11
111.869
 21
78.806
 31
0.0
  0
LINE
  8
0
 62
     0
 10
111.869
 20
78.806
 30
0.0
 11
97.8683
 21
78.806
 31
0.0
  0
LINE
  8
0
 62
     0
 10
97.8683
 20
78.806
 30
0.0
 11
97.8683
 21
92.8053
 31
0.0
  0
LINE
  8
0
 62
     0
 10
116.918
 20
92.8053
 30
0.0
 11
130.919
 21
92.8053
 31
0.0
  0
LINE
  8
0
 62
     0
 10
130.919
 20
92.8053
 30
0.0
 11
130.919
 21
78.806
 31
0.0
  0
LINE
  8
0
 62
     0
 10
130.919
 20
78.806
 30
0.0
 11
116.918
 21
78.806
 31
0.0
  0
LINE
  8
0
 62
     0
 10
116.918
 20
78.806
 30
0.0
 11
116.918
 21
92.8053
 31
0.0
  0
LINE
  8
0
 62
     0
 10
135.97
 20
92.8053
 30
0.0
 11
149.969
 21
92.8053
 31
0.0
  0
LINE
  8
0
 62
     0
 10
149.969
 20
92.8053
 30
0.0
 11
149.969
 21
78.806
 31
0.0
  0
LINE
  8
0
 62
     0
 10
149.969
 20
78.806
 30
0.0
 11
135.97
 21
78.806
 31
0.0
  0
LINE
  8
0
 62
     0
 10
135.97
 20
78.806
 30
0.0
 11
135.97
 21
92.8053
 31
0.0
  0
LINE
  8
0
 62
     0
 10
155.02
 20
92.8053
 30
0.0
 11
169.019
 21
92.8053
 31
0.0
  0
LINE
  8
0
 62
     0
 10
169.019
 20
92.8053
 30
0.0
 11
169.019
 21
78.806
 31
0.0
  0
LINE
  8
0
 62
     0
 10
169.019
 20
78.806
 30
0.0
 11
155.02
 21
78.806
 31
0.0
  0
LINE
  8
0
 62
     0
 10
155.02
 20
78.806
 30
0.0
 11
155.02
 21
92.8053
 31
0.0
  0
LINE
  8
0
 62
     0
 10
174.07
 20
92.8053
 30
0.0
 11
188.069
 21
92.8053
 31
0.0
  0
LINE
  8
0
 62
     0
 10
188.069
 20
92.8053
 30
0.0
 11
188.069
 21
78.806
 31
0.0
  0
LINE
  8
0
 62
     0
 10
188.069
 20
78.806
 30
0.0
 11
174.07
 21
78.806
 31
0.0
  0
LINE
  8
0
 62
     0
 10
174.07
 20
78.806
 30
0.0
 11
174.07
 21
92.8053
 31
0.0
  0
LINE
  8
0
 62
     0
 10
193.12
 20
92.8053
 30
0.0
 11
207.119
 21
92.8053
 31
0.0
  0
LINE
  8
0
 62
     0
 10
207.119
 20
92.8053
 30
0.0
 11
207.119
 21
78.806
 31
0.0
  0
LINE
  8
0
 62
     0
 10
207.119
 20
78.806
 30
0.0
 11
193.12
 21
78.806
 31
0.0
  0
LINE
  8
0
 62
     0
 10
193.12
 20
78.806
 30
0.0
 11
193.12
 21
92.8053
 31
0.0
  0
LINE
  8
0
 62
     0
 10
212.17
 20
92.8053
 30
0.0
 11
226.169
 21
92.8053
 31
0.0
  0
LINE
  8
0
 62
     0
 10
226.169
 20
92.8053
 30
0.0
 11
226.169
 21
78.806
 31
0.0
  0
LINE
  8
0
 62
     0
 10
226.169
 20
78.806
 30
0.0
 11
212.17
 21
78.806
 31
0.0
  0
LINE
  8
0
 62
     0
 10
212.17
 20
78.806
 30
0.0
 11
212.17
 21
92.8053
 31
0.0
  0
LINE
  8
0
 62
     0
 10
231.22
 20
92.8053
 30
0.0
 11
245.219
 21
92.8053
 31
0.0
  0
LINE
  8
0
 62
     0
 10
245.219
 20
92.8053
 30
0.0
 11
245.219
 21
78.806
 31
0.0
  0
LINE
  8
0
 62
     0
 10
245.219
 20
78.806
 30
0.0
 11
231.22
 21
78.806
 31
0.0
  0
LINE
  8
0
 62
     0
 10
231.22
 20
78.806
 30
0.0
 11
231.22
 21
92.8053
 31
0.0
  0
LINE
  8
0
 62
     0
 10
293.132
 20
92.8053
 30
0.0
 11
307.132
 21
92.8053
 31
0.0
  0
LINE
  8
0
 62
     0
 10
307.132
 20
92.8053
 30
0.0
 11
307.132
 21
78.806
 31
0.0
  0
LINE
  8
0
 62
     0
 10
307.132
 20
78.806
 30
0.0
 11
293.132
 21
78.806
 31
0.0
  0
LINE
  8
0
 62
     0
 10
293.132
 20
78.806
 30
0.0
 11
293.132
 21
92.8053
 31
0.0
  0
LINE
  8
0
 62
     0
 10
312.182
 20
92.8053
 30
0.0
 11
326.182
 21
92.8053
 31
0.0
  0
LINE
  8
0
 62
     0
 10
326.182
 20
92.8053
 30
0.0
 11
326.182
 21
78.806
 31
0.0
  0
LINE
  8
0
 62
     0
 10
326.182
 20
78.806
 30
0.0
 11
312.182
 21
78.806
 31
0.0
  0
LINE
  8
0
 62
     0
 10
312.182
 20
78.806
 30
0.0
 11
312.182
 21
92.8053
 31
0.0
  0
LINE
  8
0
 62
     0
 10
331.232
 20
92.8053
 30
0.0
 11
345.232
 21
92.8053
 31
0.0
  0
LINE
  8
0
 62
     0
 10
345.232
 20
92.8053
 30
0.0
 11
345.232
 21
78.806
 31
0.0
  0
LINE
  8
0
 62
     0
 10
345.232
 20
78.806
 30
0.0
 11
331.232
 21
78.806
 31
0.0
  0
LINE
  8
0
 62
     0
 10
331.232
 20
78.806
 30
0.0
 11
331.232
 21
92.8053
 31
0.0
  0
LINE
  8
0
 62
     0
 10
2.61965
 20
121.38
 30
0.0
 11
16.6192
 21
121.38
 31
0.0
  0
LINE
  8
0
 62
     0
 10
16.6192
 20
121.38
 30
0.0
 11
16.6192
 21
107.381
 31
0.0
  0
LINE
  8
0
 62
     0
 10
16.6192
 20
107.381
 30
0.0
 11
2.61965
 21
107.381
 31
0.0
  0
LINE
  8
0
 62
     0
 10
2.61965
 20
107.381
 30
0.0
 11
2.61965
 21
121.38
 31
0.0
  0
LINE
  8
0
 62
     0
 10
40.7197
 20
121.38
 30
0.0
 11
54.719
 21
121.38
 31
0.0
  0
LINE
  8
0
 62
     0
 10
54.719
 20
121.38
 30
0.0
 11
54.719
 21
107.381
 31
0.0
  0
LINE
  8
0
 62
     0
 10
54.719
 20
107.381
 30
0.0
 11
40.7197
 21
107.381
 31
0.0
  0
LINE
  8
0
 62
     0
 10
40.7197
 20
107.381
 30
0.0
 11
40.7197
 21
121.38
 31
0.0
  0
LINE
  8
0
 62
     0
 10
59.7697
 20
121.38
 30
0.0
 11
73.769
 21
121.38
 31
0.0
  0
LINE
  8
0
 62
     0
 10
73.769
 20
121.38
 30
0.0
 11
73.769
 21
107.381
 31
0.0
  0
LINE
  8
0
 62
     0
 10
73.769
 20
107.381
 30
0.0
 11
59.7697
 21
107.381
 31
0.0
  0
LINE
  8
0
 62
     0
 10
59.7697
 20
107.381
 30
0.0
 11
59.7697
 21
121.38
 31
0.0
  0
LINE
  8
0
 62
     0
 10
78.8197
 20
121.38
 30
0.0
 11
92.819
 21
121.38
 31
0.0
  0
LINE
  8
0
 62
     0
 10
92.819
 20
121.38
 30
0.0
 11
92.819
 21
107.381
 31
0.0
  0
LINE
  8
0
 62
     0
 10
92.819
 20
107.381
 30
0.0
 11
78.8197
 21
107.381
 31
0.0
  0
LINE
  8
0
 62
     0
 10
78.8197
 20
107.381
 30
0.0
 11
78.8197
 21
121.38
 31
0.0
  0
LINE
  8
0
 62
     0
 10
97.8683
 20
121.38
 30
0.0
 11
111.869
 21
121.38
 31
0.0
  0
LINE
  8
0
 62
     0
 10
111.869
 20
121.38
 30
0.0
 11
111.869
 21
107.381
 31
0.0
  0
LINE
  8
0
 62
     0
 10
111.869
 20
107.381
 30
0.0
 11
97.8683
 21
107.381
 31
0.0
  0
LINE
  8
0
 62
     0
 10
97.8683
 20
107.381
 30
0.0
 11
97.8683
 21
121.38
 31
0.0
  0
LINE
  8
0
 62
     0
 10
126.445
 20
121.38
 30
0.0
 11
140.444
 21
121.38
 31
0.0
  0
LINE
  8
0
 62
     0
 10
140.444
 20
121.38
 30
0.0
 11
140.444
 21
107.381
 31
0.0
  0
LINE
  8
0
 62
     0
 10
140.444
 20
107.381
 30
0.0
 11
126.445
 21
107.381
 31
0.0
  0
LINE
  8
0
 62
     0
 10
126.445
 20
107.381
 30
0.0
 11
126.445
 21
121.38
 31
0.0
  0
LINE
  8
0
 62
     0
 10
145.495
 20
121.38
 30
0.0
 11
159.494
 21
121.38
 31
0.0
  0
LINE
  8
0
 62
     0
 10
159.494
 20
121.38
 30
0.0
 11
159.494
 21
107.381
 31
0.0
  0
LINE
  8
0
 62
     0
 10
159.494
 20
107.381
 30
0.0
 11
145.495
 21
107.381
 31
0.0
  0
LINE
  8
0
 62
     0
 10
145.495
 20
107.381
 30
0.0
 11
145.495
 21
121.38
 31
0.0
  0
LINE
  8
0
 62
     0
 10
164.545
 20
121.38
 30
0.0
 11
178.544
 21
121.38
 31
0.0
  0
LINE
  8
0
 62
     0
 10
178.544
 20
121.38
 30
0.0
 11
178.544
 21
107.381
 31
0.0
  0
LINE
  8
0
 62
     0
 10
178.544
 20
107.381
 30
0.0
 11
164.545
 21
107.381
 31
0.0
  0
LINE
  8
0
 62
     0
 10
164.545
 20
107.381
 30
0.0
 11
164.545
 21
121.38
 31
0.0
  0
LINE
  8
0
 62
     0
 10
183.595
 20
121.38
 30
0.0
 11
197.594
 21
121.38
 31
0.0
  0
LINE
  8
0
 62
     0
 10
197.594
 20
121.38
 30
0.0
 11
197.594
 21
107.381
 31
0.0
  0
LINE
  8
0
 62
     0
 10
197.594
 20
107.381
 30
0.0
 11
183.595
 21
107.381
 31
0.0
  0
LINE
  8
0
 62
     0
 10
183.595
 20
107.381
 30
0.0
 11
183.595
 21
121.38
 31
0.0
  0
LINE
  8
0
 62
     0
 10
212.17
 20
121.38
 30
0.0
 11
226.169
 21
121.38
 31
0.0
  0
LINE
  8
0
 62
     0
 10
226.169
 20
121.38
 30
0.0
 11
226.169
 21
107.381
 31
0.0
  0
LINE
  8
0
 62
     0
 10
226.169
 20
107.381
 30
0.0
 11
212.17
 21
107.381
 31
0.0
  0
LINE
  8
0
 62
     0
 10
212.17
 20
107.381
 30
0.0
 11
212.17
 21
121.38
 31
0.0
  0
LINE
  8
0
 62
     0
 10
231.22
 20
121.38
 30
0.0
 11
245.219
 21
121.38
 31
0.0
  0
LINE
  8
0
 62
     0
 10
245.219
 20
121.38
 30
0.0
 11
245.219
 21
107.381
 31
0.0
  0
LINE
  8
0
 62
     0
 10
245.219
 20
107.381
 30
0.0
 11
231.22
 21
107.381
 31
0.0
  0
LINE
  8
0
 62
     0
 10
231.22
 20
107.381
 30
0.0
 11
231.22
 21
121.38
 31
0.0
  0
LINE
  8
0
 62
     0
 10
250.27
 20
121.38
 30
0.0
 11
264.269
 21
121.38
 31
0.0
  0
LINE
  8
0
 62
     0
 10
264.269
 20
121.38
 30
0.0
 11
264.269
 21
107.381
 31
0.0
  0
LINE
  8
0
 62
     0
 10
264.269
 20
107.381
 30
0.0
 11
250.27
 21
107.381
 31
0.0
  0
LINE
  8
0
 62
     0
 10
250.27
 20
107.381
 30
0.0
 11
250.27
 21
121.38
 31
0.0
  0
LINE
  8
0
 62
     0
 10
269.32
 20
121.38
 30
0.0
 11
283.319
 21
121.38
 31
0.0
  0
LINE
  8
0
 62
     0
 10
283.319
 20
121.38
 30
0.0
 11
283.319
 21
107.381
 31
0.0
  0
LINE
  8
0
 62
     0
 10
283.319
 20
107.381
 30
0.0
 11
269.32
 21
107.381
 31
0.0
  0
LINE
  8
0
 62
     0
 10
269.32
 20
107.381
 30
0.0
 11
269.32
 21
121.38
 31
0.0
  0
LINE
  8
0
 62
     0
 10
293.132
 20
121.38
 30
0.0
 11
307.132
 21
121.38
 31
0.0
  0
LINE
  8
0
 62
     0
 10
307.132
 20
121.38
 30
0.0
 11
307.132
 21
107.381
 31
0.0
  0
LINE
  8
0
 62
     0
 10
307.132
 20
107.381
 30
0.0
 11
293.132
 21
107.381
 31
0.0
  0
LINE
  8
0
 62
     0
 10
293.132
 20
107.381
 30
0.0
 11
293.132
 21
121.38
 31
0.0
  0
LINE
  8
0
 62
     0
 10
312.182
 20
121.38
 30
0.0
 11
326.182
 21
121.38
 31
0.0
  0
LINE
  8
0
 62
     0
 10
326.182
 20
121.38
 30
0.0
 11
326.182
 21
107.381
 31
0.0
  0
LINE
  8
0
 62
     0
 10
326.182
 20
107.381
 30
0.0
 11
312.182
 21
107.381
 31
0.0
  0
LINE
  8
0
 62
     0
 10
312.182
 20
107.381
 30
0.0
 11
312.182
 21
121.38
 31
0.0
  0
LINE
  8
0
 62
     0
 10
331.232
 20
121.38
 30
0.0
 11
345.232
 21
121.38
 31
0.0
  0
LINE
  8
0
 62
     0
 10
345.232
 20
121.38
 30
0.0
 11
345.232
 21
107.381
 31
0.0
  0
LINE
  8
0
 62
     0
 10
345.232
 20
107.381
 30
0.0
 11
331.232
 21
107.381
 31
0.0
  0
LINE
  8
0
 62
     0
 10
331.232
 20
107.381
 30
0.0
 11
331.232
 21
121.38
 31
0.0
  0
ENDSEC
  0
EOF
